<?xml version="1.0" encoding="utf-8"?>
<!-- Generator: Adobe Illustrator 16.0.0, SVG Export Plug-In . SVG Version: 6.00 Build 0)  -->
<!DOCTYPE svg PUBLIC "-//W3C//DTD SVG 1.1//EN" "http://www.w3.org/Graphics/SVG/1.1/DTD/svg11.dtd">
<svg version="1.1" id="Layer_1" xmlns="http://www.w3.org/2000/svg" xmlns:xlink="http://www.w3.org/1999/xlink" x="0px" y="0px"
	 width="153.611px" height="145.555px" viewBox="0 0 153.611 145.555" enable-background="new 0 0 153.611 145.555"
	 xml:space="preserve">
<path fill-rule="evenodd" clip-rule="evenodd" fill="#FFFFFF" d="M21.523,75.494c-1.515-12.35,0.737-24.059,5.717-35.389
	c1.006-2.287,2.174-3.971,4.368-5.215c9.96-5.646,19.866-11.39,29.745-17.178c2.433-1.425,4.976-1.51,7.685-1.757
	c3.706-0.339,7.335-1.563,10.984-2.466c2.584-0.64,4.837-0.239,7.197,1.159c9.705,5.748,19.643,11.109,29.248,17.016
	c6.717,4.132,10.508,11.212,15.471,17.087c0.713,0.844,0.486,2.58,0.492,3.906c0.039,8.592-0.215,17.195,0.096,25.777
	c0.26,7.195-1.25,13.836-3.445,20.674c-2.271,7.078-5.906,12-12.695,15.031c-4.436,1.98-8.715,4.49-12.68,7.303
	c-9.348,6.635-19.893,9.461-31.04,10.84c-2.187,0.27-3.854-0.162-5.687-1.236c-10.019-5.877-20.817-10.711-29.951-17.725
	c-8.205-6.301-17.17-13.387-15.577-26.211C21.924,83.295,21.523,79.371,21.523,75.494z M127.503,93.1
	c-11.26,6.377-22.576,12.658-33.743,19.201c-2.787,1.633-4.805,1.871-7.736,0.109c-11.789-7.078-23.78-13.82-36.421-21.104
	c0,3.42,0.163,6.059-0.046,8.67c-0.202,2.521,0.738,3.98,2.931,5.227c11.56,6.57,23.055,13.256,34.53,19.973
	c1.934,1.131,3.464,1.229,5.492-0.01c6.465-3.947,12.815-8.252,19.709-11.281c8.955-3.934,14.047-10.324,15.881-19.676
	c0.031-0.166,0.047-0.334,0.063-0.502c-0.014-0.402-0.029-0.805-0.045-1.209C127.914,92.699,127.708,92.899,127.503,93.1z
	 M102.142,55.719c-3.639-2.1-7.612-3.682-10.7-6.305c-9.965-8.465-18.629-6.953-29.483-0.174
	c-9.219,5.756-14.334,11.15-12.49,22.271c0.898,5.42-1.351,11.902,0.862,16.414c2.339,4.764,9.586,5.785,14.017,9.316
	c8.425,6.715,16.414,7.787,24.808,0.137c1.703-1.551,3.929-2.732,6.117-3.512c7.612-2.713,9.944-7.756,9.297-15.795
	c-0.859-10.686-0.369-21.486-0.33-32.238c0.008-2.363-0.373-3.949-2.725-5.268C89.9,34.057,78.39,27.357,66.915,20.603
	c-2.151-1.267-3.774-1.31-5.966,0.015c-7.788,4.706-15.399,9.909-23.69,13.518c-8.625,3.754-8.955,11.445-12.374,19.438
	c12.662-7.328,24.068-13.84,35.368-20.533c2.596-1.537,4.67-1.771,7.37-0.156c10.702,6.4,21.544,12.566,32.303,18.875
	C101.23,52.524,103.31,53.026,102.142,55.719z M67.431,18.173c12.389,7.138,23.855,13.837,35.426,20.349
	c3.104,1.746,3.848,4.139,3.811,7.451c-0.137,12.207-0.102,24.418,0.01,36.625c0.012,1.148-1.252,3.396,1.434,3.449
	c3.346,0.064,9.006-5.768,9.01-9.143c0.02-12.805-0.035-25.613,0.063-38.42c0.02-2.584-0.541-4.236-3.055-5.627
	c-9.428-5.212-18.676-10.749-28.001-16.146c-1.3-0.753-2.568-1.552-4.245-1.221C77.359,16.382,72.816,17.181,67.431,18.173z
	 M85.537,127.055c-8.514-4.938-16.219-10.566-24.79-14.094c-11.892-4.895-15.431-12.576-13.685-24.971
	c1.331-9.451,0.264-19.238,0.264-29.551c-2.372,1.383-3.853,2.566-5.541,3.168c-4.181,1.492-5.139,4.322-5.037,8.568
	c0.294,12.283,0.222,24.58,0.047,36.869c-0.042,2.949,0.967,4.586,3.452,5.957c7.07,3.898,14.472,7.395,20.926,12.158
	C68.946,130.897,76.622,130.143,85.537,127.055z M73.961,40.184c-1.185-2.07-3.263-2.271-4.641-3.436
	c-3.632-3.068-6.849-2.373-10.763,0.045c-10.159,6.275-20.588,12.121-31.01,17.957c-2.678,1.5-3.772,3.238-3.701,6.361
	c0.204,8.752,0.762,17.584-0.125,26.25c-0.951,9.285,4.788,14.133,10.745,20.568c0-13.514,0.315-25.936-0.149-38.328
	c-0.194-5.182,1.63-7.746,6.006-10.111C51.675,53.354,62.735,46.674,73.961,40.184z M79.613,105.573
	c1.94,1.199,3.468,1.893,4.686,2.945c3.8,3.283,7.093,2.582,11.21,0.01c9.997-6.246,20.288-12.033,30.627-17.699
	c3.143-1.723,4.107-3.781,4.01-7.191c-0.225-7.918-0.963-15.969,0.121-23.74c1.381-9.898-4.35-15.443-10.756-22.221
	c0,12.98-0.342,25.057,0.148,37.102c0.236,5.836-1.658,9-6.816,11.719C101.708,92.367,90.968,98.992,79.613,105.573z"/>
<path fill-rule="evenodd" clip-rule="evenodd" fill="#FFFFFF" d="M127.503,93.1c0.205-0.201,0.41-0.4,0.615-0.602
	c0.016,0.404,0.031,0.807,0.049,1.209C127.929,93.526,127.707,93.323,127.503,93.1z"/>
</svg>
