<?xml version="1.0" encoding="utf-8"?>
<!-- Generator: Adobe Illustrator 16.0.0, SVG Export Plug-In . SVG Version: 6.00 Build 0)  -->
<!DOCTYPE svg PUBLIC "-//W3C//DTD SVG 1.1//EN" "http://www.w3.org/Graphics/SVG/1.1/DTD/svg11.dtd">
<svg version="1.1" id="Layer_1" xmlns="http://www.w3.org/2000/svg" xmlns:xlink="http://www.w3.org/1999/xlink" x="0px" y="0px"
	 width="960px" height="780px" viewBox="0 0 960 780" enable-background="new 0 0 960 780" xml:space="preserve">
<path fill="#FFFFFF" d="M369.103,461.299c-3.151,0-5.73,6.063-5.73,13.916c0,7.85,2.58,13.914,5.73,13.914h126.383
	c3.15,0,5.73-6.064,5.73-13.914c0-7.854-2.58-13.916-5.73-13.916H369.103L369.103,461.299z"/>
<path fill="#FFFFFF" d="M369.103,374.909c-3.151,0-5.73,6.063-5.73,13.915c0,7.851,2.58,13.917,5.73,13.917h126.383
	c3.15,0,5.73-6.065,5.73-13.917s-2.58-13.915-5.73-13.915H369.103z"/>
<path fill="#FFFFFF" d="M369.103,294.876c-3.151,0-5.73,6.065-5.73,13.915c0,7.85,2.58,13.559,5.73,13.559h126.383
	c3.15,0,5.73-6.063,5.73-13.915c0-7.85-2.58-13.916-5.73-13.916L369.103,294.876L369.103,294.876z"/>
<circle opacity="0.4" fill="none" stroke="#FFFFFF" stroke-width="60" stroke-miterlimit="10" enable-background="new    " cx="425" cy="388.824" r="325.824"/>
<g enable-background="new    ">
	<path fill="#FFFFFF" d="M670.934,347.544v84.622h-16.327v-36.113h-38.378v36.113H599.78v-84.622h16.448v34.207h38.378v-34.207
		H670.934z"/>
	<path fill="#FFFFFF" d="M714.795,433.357c-5.086,0-9.654-0.846-13.707-2.534c-4.052-1.689-7.489-4.026-10.309-7.015
		c-2.822-2.983-4.987-6.401-6.496-10.253c-1.51-3.852-2.264-7.897-2.264-12.141c0-4.32,0.754-8.406,2.264-12.258
		c1.509-3.852,3.674-7.269,6.496-10.255c2.818-2.985,6.257-5.322,10.309-7.015c4.053-1.688,8.621-2.534,13.707-2.534
		c5.084,0,9.633,0.846,13.646,2.534c4.012,1.691,7.448,4.028,10.31,7.015c2.86,2.986,5.024,6.403,6.495,10.255
		s2.205,7.938,2.205,12.258c0,4.242-0.734,8.289-2.205,12.141s-3.615,7.27-6.437,10.253c-2.82,2.987-6.257,5.324-10.31,7.015
		C724.449,432.513,719.879,433.357,714.795,433.357z M698.467,401.414c0,3.587,0.715,6.762,2.146,9.529s3.377,4.932,5.84,6.489
		c2.463,1.559,5.245,2.337,8.344,2.337c3.02,0,5.76-0.799,8.224-2.396c2.463-1.598,4.43-3.778,5.899-6.546
		c1.47-2.769,2.205-5.942,2.205-9.529c0-3.509-0.735-6.665-2.205-9.472c-1.471-2.805-3.438-4.987-5.899-6.546
		c-2.464-1.56-5.204-2.339-8.224-2.339c-3.099,0-5.881,0.799-8.344,2.396s-4.409,3.78-5.84,6.548
		C699.182,394.654,698.467,397.829,698.467,401.414z"/>
	<path fill="#FFFFFF" d="M855.193,432.166h-15.972v-34.534c0-4.854-0.854-8.438-2.563-10.747s-4.072-3.466-7.092-3.466
		c-3.1,0-6.061,1.195-8.88,3.583c-2.82,2.39-4.826,5.501-6.02,9.338v35.826h-15.971v-34.534c0-4.933-0.854-8.534-2.563-10.807
		c-1.709-2.271-4.072-3.406-7.092-3.406c-3.098,0-6.059,1.164-8.879,3.492c-2.821,2.327-4.826,5.393-6.02,9.192v36.063h-15.971
		v-61.857h14.421v11.539c2.385-4.006,5.562-7.09,9.535-9.25c3.973-2.16,8.541-3.241,13.707-3.241c5.164,0,9.195,1.257,12.097,3.771
		c2.899,2.515,4.747,5.619,5.542,9.31c2.542-4.241,5.781-7.481,9.714-9.721c3.934-2.239,8.361-3.358,13.289-3.358
		c3.893,0,7.052,0.688,9.477,2.063c2.422,1.374,4.309,3.222,5.661,5.538c1.351,2.316,2.283,4.93,2.801,7.837
		c0.516,2.906,0.773,5.854,0.773,8.838v38.533H855.193z"/>
	<path fill="#FFFFFF" d="M898.101,433.357c-5.006,0-9.533-0.846-13.587-2.532c-4.053-1.689-7.509-4.008-10.369-6.954
		c-2.86-2.945-5.064-6.326-6.614-10.136c-1.549-3.812-2.324-7.839-2.324-12.081c0-5.893,1.33-11.275,3.993-16.149
		c2.661-4.872,6.476-8.782,11.441-11.729c4.965-2.946,10.824-4.421,17.579-4.421c6.833,0,12.673,1.477,17.521,4.427
		c4.846,2.951,8.561,6.848,11.144,11.688c2.581,4.84,3.874,10.055,3.874,15.642c0,0.943-0.041,1.908-0.119,2.893
		c-0.08,0.983-0.159,1.789-0.237,2.419H882.13c0.316,3.106,1.251,5.823,2.801,8.151c1.551,2.329,3.534,4.097,5.959,5.3
		c2.423,1.203,5.024,1.805,7.808,1.805c3.177,0,6.177-0.773,8.999-2.323c2.818-1.551,4.746-3.595,5.78-6.139l13.705,3.813
		c-1.51,3.179-3.676,6-6.495,8.462c-2.82,2.464-6.138,4.392-9.951,5.781C906.92,432.661,902.708,433.357,898.101,433.357z
		 M881.771,396.291h32.657c-0.318-3.106-1.213-5.805-2.682-8.095c-1.472-2.291-3.397-4.077-5.781-5.358s-5.047-1.922-7.984-1.922
		c-2.86,0-5.465,0.641-7.808,1.922c-2.345,1.281-4.251,3.067-5.722,5.358C882.982,390.486,882.089,393.185,881.771,396.291z"/>
</g>
</svg>
