<?xml version="1.0" encoding="utf-8"?>
<!-- Generator: Adobe Illustrator 16.0.0, SVG Export Plug-In . SVG Version: 6.00 Build 0)  -->
<!DOCTYPE svg PUBLIC "-//W3C//DTD SVG 1.1//EN" "http://www.w3.org/Graphics/SVG/1.1/DTD/svg11.dtd">
<svg version="1.1" id="Layer_1" xmlns="http://www.w3.org/2000/svg" xmlns:xlink="http://www.w3.org/1999/xlink" x="0px" y="0px"
	 width="960px" height="780px" viewBox="0 0 960 780" enable-background="new 0 0 960 780" xml:space="preserve">
<path fill="#FFFFFF" d="M371.208,438.215c-5.791,0-10.529,6.064-10.529,13.916c0,7.85,4.739,13.914,10.529,13.914h232.171
	c5.792,0,10.531-6.064,10.531-13.914c0-7.854-4.739-13.916-10.531-13.916H371.208L371.208,438.215z"/>
<path fill="#FFFFFF" d="M371.208,375.826c-5.791,0-10.529,6.064-10.529,13.916c0,7.85,4.739,13.916,10.529,13.916h232.171
	c5.792,0,10.531-6.066,10.531-13.916c0-7.852-4.739-13.916-10.531-13.916H371.208z"/>
<path fill="#FFFFFF" d="M371.208,312.792c-5.791,0-10.529,6.065-10.529,13.915s4.739,13.559,10.529,13.559h232.171
	c5.792,0,10.531-6.065,10.531-13.915s-4.739-13.916-10.531-13.916L371.208,312.792L371.208,312.792z"/>
<circle opacity="0.4" fill="none" stroke="#FFFFFF" stroke-width="60" stroke-miterlimit="10" enable-background="new    " cx="480" cy="389.74" r="289.927"/>
</svg>
