<?xml version="1.0" encoding="utf-8"?>
<!-- Generator: Adobe Illustrator 16.0.0, SVG Export Plug-In . SVG Version: 6.00 Build 0)  -->
<!DOCTYPE svg PUBLIC "-//W3C//DTD SVG 1.1//EN" "http://www.w3.org/Graphics/SVG/1.1/DTD/svg11.dtd">
<svg version="1.1" id="Layer_1" xmlns="http://www.w3.org/2000/svg" xmlns:xlink="http://www.w3.org/1999/xlink" x="0px" y="0px"
	 width="960px" height="908.5px" viewBox="0 0 960 908.5" enable-background="new 0 0 960 908.5" xml:space="preserve">
<circle opacity="0.4" fill="none" stroke="#FFFFFF" stroke-width="60" stroke-miterlimit="10" enable-background="new    " cx="489.525" cy="444.856" r="325.823"/>
<g enable-background="new    ">
	<path fill="#FFFFFF" d="M401.474,456.803v18.986h-62.08v-74.666h60.693v18.986h-35.946v8.746h31.573v18.134h-31.573v9.813H401.474z
		"/>
	<path fill="#FFFFFF" d="M468.299,422.883c4.374,4.338,6.56,10.88,6.56,19.626v33.28h-24.106v-29.12
		c0-6.683-2.383-10.026-7.147-10.026c-2.703,0-4.89,0.943-6.56,2.826c-1.671,1.886-2.506,4.854-2.506,8.907v27.413h-24.106v-58.347
		h22.933v5.76c2.275-2.274,4.907-3.981,7.893-5.119c2.987-1.137,6.222-1.707,9.707-1.707
		C458.148,416.376,463.926,418.546,468.299,422.883z"/>
	<path fill="#FFFFFF" d="M528.299,473.763c-3.627,2.062-8.57,3.093-14.826,3.093c-8.179,0-14.473-1.973-18.881-5.92
		c-4.41-3.946-6.613-9.866-6.613-17.76v-14.934h-8v-17.6h8v-16.32h24.107v16.32h11.946v17.6h-11.946v14.721
		c0,1.778,0.461,3.165,1.387,4.159c0.923,0.997,2.133,1.494,3.626,1.494c2.062,0,3.875-0.534,5.44-1.601L528.299,473.763z"/>
	<path fill="#FFFFFF" d="M594.537,452.216h-40.533c0.854,2.205,2.275,3.894,4.268,5.066c1.989,1.174,4.479,1.76,7.466,1.76
		c2.56,0,4.71-0.319,6.454-0.96c1.741-0.64,3.643-1.741,5.706-3.307l12.587,12.693c-5.69,6.259-14.188,9.387-25.494,9.387
		c-7.039,0-13.227-1.297-18.559-3.893c-5.334-2.596-9.459-6.204-12.374-10.827c-2.917-4.622-4.373-9.813-4.373-15.573
		c0-5.83,1.44-11.04,4.319-15.627c2.881-4.586,6.827-8.159,11.84-10.72c5.014-2.56,10.648-3.84,16.907-3.84
		c5.901,0,11.288,1.173,16.159,3.52s8.747,5.797,11.627,10.347c2.881,4.552,4.32,9.992,4.32,16.32
		C594.857,446.919,594.75,448.803,594.537,452.216z M556.777,434.829c-1.637,1.352-2.703,3.271-3.199,5.76h18.772
		c-0.498-2.416-1.565-4.319-3.2-5.706c-1.637-1.387-3.697-2.08-6.186-2.08C560.475,432.803,558.412,433.479,556.777,434.829z"/>
	<path fill="#FFFFFF" d="M644.244,416.376v21.333c-1.92-0.283-3.698-0.427-5.334-0.427c-8.25,0-12.373,4.197-12.373,12.587v25.92
		h-24.105v-58.347h22.933v6.294C629.631,418.829,635.924,416.376,644.244,416.376z"/>
</g>
</svg>
