<?xml version="1.0" encoding="utf-8"?>
<!-- Generator: Adobe Illustrator 16.0.0, SVG Export Plug-In . SVG Version: 6.00 Build 0)  -->
<!DOCTYPE svg PUBLIC "-//W3C//DTD SVG 1.1//EN" "http://www.w3.org/Graphics/SVG/1.1/DTD/svg11.dtd">
<svg version="1.1" id="Layer_1" xmlns="http://www.w3.org/2000/svg" xmlns:xlink="http://www.w3.org/1999/xlink" x="0px" y="0px"
	 width="150px" height="64.773px" viewBox="0 0 150 64.773" enable-background="new 0 0 150 64.773" xml:space="preserve">
<rect x="14.066" y="40.626" fill="#FFFFFF" width="134.754" height="2.543"/>
<g>
	<path fill="#FFFFFF" d="M3.526,32.139c-0.735-0.245-1.313-0.563-1.732-0.953l0.555-1.17c0.4,0.36,0.913,0.652,1.538,0.878
		c0.625,0.225,1.268,0.337,1.927,0.337c0.87,0,1.52-0.147,1.95-0.442c0.43-0.295,0.645-0.688,0.645-1.178
		c0-0.359-0.118-0.652-0.353-0.877c-0.235-0.226-0.525-0.397-0.87-0.518c-0.345-0.12-0.833-0.255-1.462-0.405
		c-0.79-0.189-1.428-0.38-1.913-0.569c-0.485-0.19-0.9-0.482-1.245-0.878c-0.345-0.395-0.518-0.928-0.518-1.598
		c0-0.56,0.147-1.064,0.442-1.515s0.743-0.811,1.342-1.08c0.6-0.271,1.345-0.405,2.235-0.405c0.62,0,1.23,0.08,1.83,0.24
		c0.6,0.16,1.115,0.39,1.545,0.689l-0.495,1.2c-0.44-0.279-0.91-0.492-1.41-0.638c-0.5-0.145-0.99-0.217-1.47-0.217
		c-0.85,0-1.488,0.155-1.913,0.465c-0.425,0.31-0.638,0.71-0.638,1.2c0,0.359,0.12,0.652,0.36,0.877
		c0.24,0.226,0.537,0.4,0.892,0.525s0.837,0.258,1.448,0.397c0.79,0.19,1.425,0.38,1.905,0.57c0.48,0.189,0.893,0.479,1.238,0.869
		c0.345,0.391,0.518,0.915,0.518,1.575c0,0.551-0.15,1.053-0.45,1.508s-0.755,0.815-1.365,1.08s-1.36,0.397-2.25,0.397
		C5.023,32.507,4.261,32.385,3.526,32.139z"/>
	<path fill="#FFFFFF" d="M13.921,31.809c-0.845-0.466-1.508-1.105-1.988-1.92c-0.48-0.815-0.72-1.733-0.72-2.753
		s0.24-1.938,0.72-2.753c0.48-0.814,1.145-1.454,1.995-1.92c0.85-0.465,1.8-0.697,2.85-0.697c0.82,0,1.57,0.138,2.25,0.413
		c0.68,0.274,1.26,0.682,1.74,1.222l-0.975,0.945c-0.79-0.83-1.775-1.245-2.955-1.245c-0.78,0-1.485,0.175-2.115,0.525
		c-0.63,0.35-1.123,0.832-1.478,1.447s-0.532,1.303-0.532,2.063s0.177,1.447,0.532,2.063s0.848,1.098,1.478,1.447
		c0.63,0.351,1.335,0.525,2.115,0.525c1.17,0,2.155-0.42,2.955-1.26l0.975,0.944c-0.48,0.54-1.063,0.95-1.748,1.23
		s-1.438,0.42-2.257,0.42C15.714,32.507,14.766,32.274,13.921,31.809z"/>
	<path fill="#FFFFFF" d="M29.934,32.386l-2.265-3.225c-0.28,0.02-0.5,0.029-0.66,0.029h-2.595v3.195h-1.5v-10.5h4.095
		c1.36,0,2.43,0.325,3.21,0.975c0.78,0.65,1.17,1.545,1.17,2.686c0,0.81-0.2,1.5-0.6,2.07c-0.4,0.569-0.97,0.984-1.71,1.244
		l2.49,3.525H29.934z M29.138,27.302c0.5-0.41,0.75-0.995,0.75-1.755s-0.25-1.343-0.75-1.748c-0.5-0.404-1.225-0.607-2.175-0.607
		h-2.55v4.726h2.55C27.913,27.917,28.638,27.712,29.138,27.302z"/>
	<path fill="#FFFFFF" d="M35.693,31.809c-0.85-0.466-1.518-1.107-2.003-1.928c-0.485-0.82-0.727-1.735-0.727-2.745
		s0.242-1.925,0.727-2.745c0.485-0.819,1.153-1.462,2.003-1.928c0.85-0.465,1.805-0.697,2.865-0.697c1.05,0,2,0.232,2.85,0.697
		c0.85,0.466,1.515,1.105,1.995,1.92c0.48,0.815,0.72,1.733,0.72,2.753s-0.24,1.938-0.72,2.753c-0.48,0.814-1.146,1.454-1.995,1.92
		c-0.85,0.465-1.8,0.697-2.85,0.697C37.498,32.507,36.543,32.274,35.693,31.809z M40.636,30.646c0.615-0.35,1.1-0.832,1.455-1.447
		c0.354-0.615,0.532-1.303,0.532-2.063s-0.178-1.447-0.532-2.063c-0.355-0.615-0.84-1.098-1.455-1.447
		c-0.615-0.351-1.308-0.525-2.078-0.525s-1.468,0.175-2.092,0.525c-0.625,0.35-1.115,0.832-1.47,1.447s-0.532,1.303-0.532,2.063
		s0.177,1.447,0.532,2.063s0.845,1.098,1.47,1.447c0.625,0.351,1.322,0.525,2.092,0.525S40.021,30.997,40.636,30.646z"/>
	<path fill="#FFFFFF" d="M46.418,21.886h1.5v9.195h5.685v1.305h-7.185V21.886z"/>
	<path fill="#FFFFFF" d="M55.328,21.886h1.5v9.195h5.685v1.305h-7.185V21.886z"/>
</g>
</svg>
